# xmcd
#
# Track frame offsets: 
#        150
#        23009
#        43308
#        62601
#        81386
#
# Disc length: 1295 seconds
#
# Revision: 0
# Processed by: cddbd v1.4PL0 Copyright (c) Steve Scherf et al.
# Submitted via: ExactAudioCopy v0.90b4
#
DISCID=3b050d05
DTITLE=Hobo - Hip-Hop-Cowboy
DYEAR=1900
DGENRE=Country
TTITLE0=Wohin die Gleise führ'n
TTITLE1=Hip-Hop-Cowboy
TTITLE2=Roll on Easy Rider
TTITLE3=I was made for you
TTITLE4=Hip-Hop-Cowboy (Radio Mix)
EXTD=
EXTT0=
EXTT1=
EXTT2=
EXTT3=
EXTT4=
PLAYORDER=
